<svg width="22" height="22" viewBox="0 0 22 22" fill="none" xmlns="http://www.w3.org/2000/svg">
<g clip-path="url(#clip0_902_2177)">
<path d="M10.9497 17.1117C11.3062 17.1117 11.6077 16.9885 11.8541 16.742C12.1006 16.4955 12.2235 16.1944 12.2228 15.8386C12.2228 15.4821 12.0999 15.1806 11.8541 14.9341C11.6083 14.6877 11.3068 14.5648 10.9497 14.5654C10.5932 14.5654 10.2921 14.6887 10.0463 14.9352C9.80046 15.1816 9.67722 15.4828 9.67654 15.8386C9.67654 16.1951 9.79978 16.4965 10.0463 16.743C10.2927 16.9895 10.5939 17.1124 10.9497 17.1117ZM11.0006 21.1858C9.59166 21.1858 8.26759 20.9183 7.02839 20.3832C5.7892 19.8481 4.71126 19.1226 3.7946 18.2066C2.87793 17.29 2.15241 16.212 1.61802 14.9728C1.08364 13.7336 0.816109 12.4096 0.81543 11.0006C0.81543 9.59166 1.08296 8.26759 1.61802 7.02839C2.15308 5.7892 2.87861 4.71126 3.7946 3.7946C4.71126 2.87793 5.7892 2.15241 7.02839 1.61802C8.26759 1.08364 9.59166 0.816109 11.0006 0.81543C12.4096 0.81543 13.7336 1.08296 14.9728 1.61802C16.212 2.15308 17.29 2.87861 18.2066 3.7946C19.1233 4.71126 19.8492 5.7892 20.3842 7.02839C20.9193 8.26759 21.1865 9.59166 21.1858 11.0006C21.1858 12.4096 20.9183 13.7336 20.3832 14.9728C19.8481 16.212 19.1226 17.29 18.2066 18.2066C17.29 19.1233 16.212 19.8492 14.9728 20.3842C13.7336 20.9193 12.4096 21.1865 11.0006 21.1858ZM11.1025 6.62099C11.5269 6.62099 11.8962 6.75679 12.2106 7.02839C12.525 7.3 12.6818 7.6395 12.6812 8.04691C12.6812 8.42037 12.5668 8.75139 12.3379 9.03997C12.1091 9.32855 11.8501 9.60015 11.5608 9.85478C11.1704 10.1943 10.8268 10.5677 10.5301 10.9752C10.2333 11.3826 10.0846 11.8409 10.0839 12.3502C10.0839 12.5878 10.1732 12.7874 10.3518 12.949C10.5304 13.1106 10.7382 13.1911 10.9752 13.1904C11.2298 13.1904 11.4464 13.1056 11.625 12.9358C11.8035 12.766 11.918 12.5539 11.9682 12.2992C12.0361 11.9427 12.1889 11.6246 12.4265 11.3449C12.6642 11.0651 12.9188 10.7976 13.1904 10.5423C13.5809 10.1688 13.9163 9.76142 14.1967 9.32006C14.4772 8.8787 14.617 8.38642 14.6164 7.84321C14.6164 6.97747 14.2643 6.26892 13.5602 5.71756C12.856 5.1662 12.0368 4.89018 11.1025 4.8895C10.4574 4.8895 9.84222 5.02531 9.25691 5.29691C8.6716 5.56852 8.22583 5.98441 7.9196 6.5446C7.80077 6.7483 7.76274 6.9649 7.80552 7.19441C7.8483 7.42392 7.96271 7.59774 8.14876 7.71589C8.38642 7.8517 8.63256 7.89413 8.88719 7.84321C9.14182 7.79228 9.35401 7.64799 9.52376 7.41034C9.71049 7.15571 9.94407 6.96049 10.2245 6.82469C10.5049 6.68889 10.7976 6.62099 11.1025 6.62099Z" fill="#696F8C"/>
</g>
<defs>
<clipPath id="clip0_902_2177">
<rect width="22" height="22" fill="white"/>
</clipPath>
</defs>
</svg>
