<svg width="50" height="50" viewBox="0 0 50 50" fill="none" xmlns="http://www.w3.org/2000/svg">
<path d="M50 37.5C50 39.9853 47.9853 42 45.5 42C43.0147 42 41 39.9853 41 37.5C41 35.0147 43.0147 33 45.5 33C47.9853 33 50 35.0147 50 37.5Z" fill="#3617CE" fill-opacity="0.1"/>
<path d="M43 17C43 25.2843 36.2843 32 28 32C19.7157 32 13 25.2843 13 17C13 8.71573 19.7157 2 28 2C36.2843 2 43 8.71573 43 17Z" fill="#3617CE" fill-opacity="0.1"/>
<g opacity="0.4">
<path d="M15.6317 29.6112L3.41991 41.8231C3.09872 42.1439 2.84392 42.5249 2.67007 42.9443C2.49622 43.3636 2.40674 43.8132 2.40674 44.2671C2.40674 44.7211 2.49622 45.1707 2.67007 45.59C2.84392 46.0094 3.09872 46.3904 3.41991 46.7112C4.06773 47.3589 4.94625 47.7227 5.86227 47.7227C6.7783 47.7227 7.65681 47.3589 8.30464 46.7112L20.5165 34.496M27.9696 35.1264L34.668 41.8248C35.3156 42.4726 35.6794 43.3511 35.6794 44.2671C35.6794 45.1832 35.3156 46.0617 34.668 46.7095C34.0202 47.3571 33.1417 47.721 32.2256 47.721C31.3096 47.721 30.4311 47.3571 29.7833 46.7095L19.0586 35.9866M9.90236 21.4879L6.23537 22.7073L2.57355 16.6014L5.01591 14.1591L11.1235 17.8226L9.90236 21.4879ZM9.90236 21.4879L14.7905 26.3761" stroke="#3617CE" stroke-width="2.5" stroke-linecap="round" stroke-linejoin="round"/>
<path d="M15.6319 29.6113C14.174 25.8924 14.459 21.0129 17.4645 18.0074C20.47 15.002 26.0145 14.3439 29.0666 16.1765L23.8157 21.4274L23.3269 26.801L28.7004 26.3139L33.9513 21.0613C35.7857 24.1151 35.1259 29.6596 32.1204 32.6633C29.115 35.6688 24.2371 35.9538 20.5183 34.496" stroke="#3617CE" stroke-width="2.5" stroke-linecap="round" stroke-linejoin="round"/>
</g>
</svg>
