<svg width="50" height="50" viewBox="0 0 50 50" fill="none" xmlns="http://www.w3.org/2000/svg">
<g opacity="0.4">
<path d="M33.7778 47.3803C32.9059 44.6701 30.9835 42.2735 28.3141 40.5653C25.6421 38.857 22.3659 37.9315 19.0005 37.9315C15.635 37.9315 12.3588 38.857 9.68688 40.5653C7.01748 42.2735 5.09765 44.6701 4.22314 47.3803" stroke="#3617CE" stroke-width="2.5" stroke-linecap="round" stroke-linejoin="round"/>
<path d="M19 29.9173C23.2243 29.9173 26.6488 26.4928 26.6488 22.2685C26.6488 18.0443 23.2243 14.6198 19 14.6198C14.7758 14.6198 11.3513 18.0443 11.3513 22.2685C11.3513 26.4928 14.7758 29.9173 19 29.9173Z" stroke="#3617CE" stroke-width="2.5" stroke-linecap="round"/>
</g>
<path d="M50 37.5C50 39.9853 47.9853 42 45.5 42C43.0147 42 41 39.9853 41 37.5C41 35.0147 43.0147 33 45.5 33C47.9853 33 50 35.0147 50 37.5Z" fill="#3617CE" fill-opacity="0.1"/>
<path d="M43 17C43 25.2843 36.2843 32 28 32C19.7157 32 13 25.2843 13 17C13 8.71573 19.7157 2 28 2C36.2843 2 43 8.71573 43 17Z" fill="#3617CE" fill-opacity="0.1"/>
</svg>
