<svg width="50" height="50" viewBox="0 0 50 50" fill="none" xmlns="http://www.w3.org/2000/svg">
<g id="tabler:device-desktop-search">
<path id="Vector" d="M10 6.85185C10 6.36071 10.1951 5.88968 10.5424 5.5424C10.8897 5.19511 11.3607 5 11.8519 5H41.4815C41.9726 5 42.4436 5.19511 42.7909 5.5424C43.1382 5.88968 43.3333 6.36071 43.3333 6.85185V25.3704C43.3333 25.8615 43.1382 26.3325 42.7909 26.6798C42.4436 27.0271 41.9726 27.2222 41.4815 27.2222H11.8519C11.3607 27.2222 10.8897 27.0271 10.5424 26.6798C10.1951 26.3325 10 25.8615 10 25.3704V6.85185Z" fill="#3617CE" fill-opacity="0.1"/>
<path id="Ellipse 455" d="M50 37.5C50 39.9853 47.9853 42 45.5 42C43.0147 42 41 39.9853 41 37.5C41 35.0147 43.0147 33 45.5 33C47.9853 33 50 35.0147 50 37.5Z" fill="#3617CE" fill-opacity="0.1"/>
<path id="Vector_2" opacity="0.4" d="M19.0741 37.4074H5.18523C4.69408 37.4074 4.22306 37.2123 3.87577 36.865C3.52848 36.5177 3.33337 36.0467 3.33337 35.5556V17.037C3.33337 16.5459 3.52848 16.0749 3.87577 15.7276C4.22306 15.3803 4.69408 15.1852 5.18523 15.1852H34.8149C35.306 15.1852 35.777 15.3803 36.1243 15.7276C36.4716 16.0749 36.6667 16.5459 36.6667 17.037V29.0741M10.7408 44.8148H18.1482M14.4445 37.4074V44.8148" stroke="#3617CE" stroke-width="2.5" stroke-linecap="round" stroke-linejoin="round"/>
<path id="Vector_3" opacity="0.4" d="M33.5185 40.7407L36.8519 44.0741M23.8889 36.6667C23.8889 38.1401 24.4742 39.5532 25.5161 40.595C26.558 41.6369 27.971 42.2222 29.4445 42.2222C30.9179 42.2222 32.331 41.6369 33.3728 40.595C34.4147 39.5532 35 38.1401 35 36.6667C35 35.1932 34.4147 33.7802 33.3728 32.7383C32.331 31.6964 30.9179 31.1111 29.4445 31.1111C27.971 31.1111 26.558 31.6964 25.5161 32.7383C24.4742 33.7802 23.8889 35.1932 23.8889 36.6667Z" stroke="#3617CE" stroke-width="2.5" stroke-linecap="round" stroke-linejoin="round"/>
</g>
</svg>
