<svg width="16" height="16" viewBox="0 0 16 16" fill="none" xmlns="http://www.w3.org/2000/svg">
<g clip-path="url(#clip0_390_2382)">
<path d="M14.75 14.75L11.0682 11.0682M1.25 6.97727C1.25 7.72939 1.39814 8.47414 1.68596 9.16901C1.97379 9.86387 2.39565 10.4952 2.92748 11.0271C3.45931 11.5589 4.09068 11.9808 4.78554 12.2686C5.48041 12.5564 6.22516 12.7045 6.97727 12.7045C7.72939 12.7045 8.47414 12.5564 9.16901 12.2686C9.86387 11.9808 10.4952 11.5589 11.0271 11.0271C11.5589 10.4952 11.9808 9.86387 12.2686 9.16901C12.5564 8.47414 12.7045 7.72939 12.7045 6.97727C12.7045 6.22516 12.5564 5.48041 12.2686 4.78554C11.9808 4.09068 11.5589 3.45931 11.0271 2.92748C10.4952 2.39565 9.86387 1.97378 9.16901 1.68596C8.47414 1.39814 7.72939 1.25 6.97727 1.25C6.22516 1.25 5.48041 1.39814 4.78554 1.68596C4.09068 1.97378 3.45931 2.39565 2.92748 2.92748C2.39565 3.45931 1.97379 4.09068 1.68596 4.78554C1.39814 5.48041 1.25 6.22516 1.25 6.97727Z" stroke="white" stroke-width="1.5" stroke-linecap="round" stroke-linejoin="round"/>
</g>
<defs>
<clipPath id="clip0_390_2382">
<rect width="16" height="16" fill="white"/>
</clipPath>
</defs>
</svg>
