<svg width="50" height="50" viewBox="0 0 50 50" fill="none" xmlns="http://www.w3.org/2000/svg">
<g id="tabler:device-desktop-cog">
<path id="Vector" d="M10 6.85185C10 6.36071 10.1951 5.88968 10.5424 5.5424C10.8897 5.19511 11.3607 5 11.8519 5H41.4815C41.9726 5 42.4436 5.19511 42.7909 5.5424C43.1382 5.88968 43.3333 6.36071 43.3333 6.85185V25.3704C43.3333 25.8615 43.1382 26.3325 42.7909 26.6798C42.4436 27.0271 41.9726 27.2222 41.4815 27.2222H11.8519C11.3607 27.2222 10.8897 27.0271 10.5424 26.6798C10.1951 26.3325 10 25.8615 10 25.3704V6.85185Z" fill="#3617CE" fill-opacity="0.1"/>
<path id="Ellipse 455" d="M50 37.5C50 39.9853 47.9853 42 45.5 42C43.0147 42 41 39.9853 41 37.5C41 35.0147 43.0147 33 45.5 33C47.9853 33 50 35.0147 50 37.5Z" fill="#3617CE" fill-opacity="0.1"/>
<path id="Vector_2" opacity="0.4" d="M20 37.4074H5.18523C4.69408 37.4074 4.22306 37.2123 3.87577 36.865C3.52848 36.5177 3.33337 36.0467 3.33337 35.5556V17.037C3.33337 16.5459 3.52848 16.0749 3.87577 15.7276C4.22306 15.3803 4.69408 15.1852 5.18523 15.1852H34.8149C35.306 15.1852 35.777 15.3803 36.1243 15.7276C36.4716 16.0749 36.6667 16.5459 36.6667 17.037V30M10.7408 44.8148H20M14.4445 37.4074V44.8148" stroke="#3617CE" stroke-width="2.5" stroke-linecap="round" stroke-linejoin="round"/>
<path id="Vector_3" opacity="0.4" d="M30.7426 42.2222C29.7603 42.2222 28.8183 41.832 28.1237 41.1374C27.4291 40.4428 27.0389 39.5008 27.0389 38.5185C27.0389 37.5362 27.4291 36.5942 28.1237 35.8996C28.8183 35.205 29.7603 34.8148 30.7426 34.8148M30.7426 42.2222C31.7249 42.2222 32.6669 41.832 33.3615 41.1374C34.0561 40.4428 34.4463 39.5008 34.4463 38.5185C34.4463 37.5362 34.0561 36.5942 33.3615 35.8996C32.6669 35.205 31.7249 34.8148 30.7426 34.8148M30.7426 42.2222V45M30.7426 34.8148V32.037M36.3556 35.2778L33.95 36.6666M27.537 40.3704L25.1296 41.7592M25.1296 35.2778L27.537 36.6666M33.95 40.3704L36.3574 41.7592" stroke="#3617CE" stroke-width="2.5" stroke-linecap="round" stroke-linejoin="round"/>
</g>
</svg>
