<svg width="14" height="15" viewBox="0 0 14 15" fill="none" xmlns="http://www.w3.org/2000/svg">
<g clip-path="url(#clip0_523_1599)">
<path d="M4.81195 9.68707L9.18695 5.31207M6.27029 3.12457L6.60789 2.73374C7.29171 2.05002 8.21912 1.66595 9.18612 1.66602C10.1531 1.66608 11.0805 2.05029 11.7642 2.7341C12.4479 3.41792 12.832 4.34534 12.8319 5.31233C12.8318 6.27932 12.4476 7.20669 11.7638 7.89041L11.3745 8.22874M7.72862 11.8746L7.43914 12.2639C6.74734 12.948 5.81367 13.3317 4.84075 13.3317C3.86784 13.3317 2.93417 12.948 2.24237 12.2639C1.90138 11.9268 1.63067 11.5253 1.44591 11.0828C1.26115 10.6403 1.16602 10.1655 1.16602 9.68598C1.16602 9.20644 1.26115 8.73167 1.44591 8.28916C1.63067 7.84664 1.90138 7.44518 2.24237 7.10801L2.62445 6.77041" stroke="#696F8C" stroke-width="1.5" stroke-linecap="round" stroke-linejoin="round"/>
</g>
<defs>
<clipPath id="clip0_523_1599">
<rect width="14" height="14" fill="white" transform="translate(0 0.5)"/>
</clipPath>
</defs>
</svg>
