<svg width="50" height="50" viewBox="0 0 50 50" fill="none" xmlns="http://www.w3.org/2000/svg">
<g opacity="0.4">
<path d="M13.5713 36.6296L17.1904 40.3827L24.4285 32.8765M20.8094 14.1111H12.1237C10.0971 14.1111 9.08373 14.1111 8.30925 14.5202C7.62824 14.8799 7.07459 15.454 6.72773 16.1603C6.33325 16.9634 6.33325 18.0143 6.33325 20.116V41.8839C6.33325 43.9857 6.33325 45.0365 6.72773 45.8397C7.07469 46.5458 7.62831 47.12 8.30925 47.4798C9.08192 47.8889 10.0953 47.8889 12.1183 47.8889H25.8815C27.9046 47.8889 28.9161 47.8889 29.6888 47.4798C30.371 47.1195 30.9247 46.5453 31.2721 45.8397C31.6666 45.0365 31.6666 43.9894 31.6666 41.8914V25.3703M20.8094 14.1111C21.327 14.1167 21.6527 14.1374 21.9657 14.2143C22.3349 14.3081 22.6877 14.4582 23.0116 14.6647C23.3772 14.8974 23.6902 15.222 24.3145 15.8713L29.9711 21.7355C30.5972 22.3848 30.9084 22.7075 31.1328 23.0866C31.3318 23.4244 31.4766 23.7884 31.5671 24.1712C31.6394 24.4959 31.6612 24.8355 31.6666 25.3703M20.8094 14.1111V19.3654C20.8094 21.4671 20.8094 22.518 21.2039 23.3212C21.5509 24.0273 22.1045 24.6014 22.7854 24.9613C23.5581 25.3703 24.5714 25.3703 26.5945 25.3703H31.6666" stroke="#3617CE" stroke-width="2.5" stroke-linecap="round" stroke-linejoin="round"/>
</g>
<path opacity="0.1" d="M50 37.5C50 39.9853 47.9853 42 45.5 42C43.0147 42 41 39.9853 41 37.5C41 35.0147 43.0147 33 45.5 33C47.9853 33 50 35.0147 50 37.5Z" fill="#3617CE"/>
<path opacity="0.1" d="M39.6765 31.8431C39.6765 33.3902 39.0816 34.8739 38.0225 35.9679C36.9635 37.0619 35.5271 37.6765 34.0295 37.6765L18.9706 37.6765C17.4729 37.6765 16.0366 37.0619 14.9776 35.9679C13.9185 34.8739 13.3236 33.3902 13.3236 31.8431L13.3236 22.1209L13.3236 12.3987L13.3236 8.50978C13.3236 6.96269 13.9185 5.47896 14.9776 4.385C16.0366 3.29103 17.4729 2.67645 18.9706 2.67645L34.0295 2.67645C35.5271 2.67645 36.9635 3.29103 38.0225 4.385C39.0816 5.47896 39.6765 6.96269 39.6765 8.50979L39.6765 31.8431Z" fill="#3617CE"/>
</svg>
