<svg width="16" height="16" viewBox="0 0 16 16" fill="none" xmlns="http://www.w3.org/2000/svg">
<path d="M12.5 13.4092L13.4545 14.3637M9 11.8183C9 12.3246 9.20114 12.8102 9.55916 13.1682C9.91718 13.5262 10.4028 13.7274 10.9091 13.7274C11.4154 13.7274 11.901 13.5262 12.259 13.1682C12.617 12.8102 12.8182 12.3246 12.8182 11.8183C12.8182 11.3119 12.617 10.8264 12.259 10.4683C11.901 10.1103 11.4154 9.90918 10.9091 9.90918C10.4028 9.90918 9.91718 10.1103 9.55916 10.4683C9.20114 10.8264 9 11.3119 9 11.8183Z" stroke="white" stroke-width="1.5" stroke-linecap="round" stroke-linejoin="round"/>
<path d="M13.091 8.00011V4.0222C13.091 3.97197 13.0812 3.92222 13.0619 3.87581C13.0427 3.82941 13.0145 3.78724 12.979 3.75175L10.9757 1.74847C10.9042 1.67685 10.8071 1.63656 10.7059 1.63647H3.291C3.18973 1.63647 3.09262 1.6767 3.02101 1.74831C2.94941 1.81991 2.90918 1.91703 2.90918 2.01829V13.9819C2.90918 14.0832 2.94941 14.1803 3.02101 14.2519C3.09262 14.3235 3.18973 14.3637 3.291 14.3637H7.36373" stroke="white" stroke-width="1.5" stroke-linecap="round" stroke-linejoin="round"/>
<path d="M10 2V4.55C10 4.66935 10.0474 4.78381 10.1318 4.8682C10.2162 4.95259 10.3307 5 10.45 5H13" stroke="white" stroke-width="1.5" stroke-linecap="round" stroke-linejoin="round"/>
</svg>
