<svg width="46" height="46" viewBox="0 0 46 46" fill="none" xmlns="http://www.w3.org/2000/svg">
<path opacity="0.2" d="M23 43.087C13.5311 43.087 8.79656 43.087 5.85382 40.1442C2.91309 37.2055 2.91309 32.469 2.91309 23C2.91309 13.531 2.91309 8.79653 5.85382 5.85379C8.79856 2.91306 13.5311 2.91306 23 2.91306C32.469 2.91306 37.2035 2.91306 40.1443 5.85379C43.087 8.79853 43.087 13.531 43.087 23C43.087 32.469 43.087 37.2035 40.1443 40.1442C37.2055 43.087 32.469 43.087 23 43.087Z" fill="#C30C0C"/>
<path d="M16.9142 16.9137C17.1967 16.6315 17.5796 16.4731 17.9788 16.4731C18.3781 16.4731 18.761 16.6315 19.0434 16.9137L23.0006 20.8708L26.9577 16.9137C27.0956 16.7657 27.2619 16.6469 27.4467 16.5646C27.6315 16.4823 27.831 16.438 28.0333 16.4344C28.2356 16.4308 28.4365 16.468 28.6241 16.5438C28.8117 16.6196 28.9821 16.7324 29.1252 16.8754C29.2682 17.0185 29.381 17.1889 29.4568 17.3765C29.5325 17.5641 29.5697 17.765 29.5662 17.9673C29.5626 18.1696 29.5183 18.369 29.436 18.5538C29.3536 18.7386 29.2349 18.905 29.0869 19.0429L25.1298 23L29.0869 26.9571C29.2349 27.0951 29.3536 27.2614 29.436 27.4462C29.5183 27.631 29.5626 27.8305 29.5662 28.0328C29.5697 28.235 29.5325 28.436 29.4568 28.6236C29.381 28.8111 29.2682 28.9815 29.1252 29.1246C28.9821 29.2677 28.8117 29.3804 28.6241 29.4562C28.4365 29.532 28.2356 29.5692 28.0333 29.5656C27.831 29.5621 27.6315 29.5178 27.4467 29.4354C27.2619 29.3531 27.0956 29.2344 26.9577 29.0864L23.0006 25.1292L19.0434 29.0864C18.7579 29.3525 18.3801 29.4973 17.9898 29.4905C17.5995 29.4836 17.2272 29.3255 16.9511 29.0494C16.6751 28.7734 16.517 28.401 16.5101 28.0108C16.5032 27.6205 16.6481 27.2427 16.9142 26.9571L20.8713 23L16.9142 19.0429C16.6321 18.7604 16.4736 18.3775 16.4736 17.9783C16.4736 17.579 16.6321 17.1961 16.9142 16.9137Z" fill="#C30C0C"/>
</svg>
