<svg width="16" height="16" viewBox="0 0 16 16" fill="none" xmlns="http://www.w3.org/2000/svg">
<path d="M11 1.25V4.25M5 1.25V4.25M2 7.25001H14M2 4.25C2 3.85218 2.15804 3.47065 2.43934 3.18934C2.72064 2.90804 3.10218 2.75 3.5 2.75H12.5C12.8978 2.75 13.2794 2.90804 13.5607 3.18934C13.842 3.47065 14 3.85218 14 4.25V13.25C14 13.6478 13.842 14.0294 13.5607 14.3107C13.2794 14.592 12.8978 14.75 12.5 14.75H3.5C3.10218 14.75 2.72064 14.592 2.43934 14.3107C2.15804 14.0294 2 13.6478 2 13.25V4.25Z" stroke="#3617CE" stroke-width="1.5" stroke-linecap="round" stroke-linejoin="round"/>
</svg>
