<svg width="18" height="18" viewBox="0 0 18 18" fill="none" xmlns="http://www.w3.org/2000/svg">
<path d="M6.91667 6.5H6.925M11.0833 6.5H11.0917M14 2.33333C14.663 2.33333 15.2989 2.59672 15.7678 3.06556C16.2366 3.5344 16.5 4.17029 16.5 4.83333V11.5C16.5 12.163 16.2366 12.7989 15.7678 13.2678C15.2989 13.7366 14.663 14 14 14H9.83333L5.66667 16.5V14H4C3.33696 14 2.70107 13.7366 2.23223 13.2678C1.76339 12.7989 1.5 12.163 1.5 11.5V4.83333C1.5 4.17029 1.76339 3.5344 2.23223 3.06556C2.70107 2.59672 3.33696 2.33333 4 2.33333H14Z" stroke="#666666" stroke-width="1.8" stroke-linecap="round" stroke-linejoin="round"/>
<path d="M6.91675 9.83333C7.18831 10.1105 7.51246 10.3307 7.87019 10.481C8.22792 10.6313 8.61205 10.7088 9.00008 10.7088C9.38811 10.7088 9.77224 10.6313 10.13 10.481C10.4877 10.3307 10.8118 10.1105 11.0834 9.83333" stroke="#666666" stroke-width="1.8" stroke-linecap="round" stroke-linejoin="round"/>
</svg>
