<svg width="16" height="16" viewBox="0 0 16 16" fill="none" xmlns="http://www.w3.org/2000/svg">
<g clip-path="url(#clip0_383_2554)">
<path d="M1.3335 7.99992C1.3335 8.8754 1.50593 9.7423 1.84097 10.5511C2.176 11.36 2.66706 12.0949 3.28612 12.714C3.90517 13.333 4.6401 13.8241 5.44894 14.1591C6.25778 14.4941 7.12468 14.6666 8.00016 14.6666C8.87564 14.6666 9.74255 14.4941 10.5514 14.1591C11.3602 13.8241 12.0951 13.333 12.7142 12.714C13.3333 12.0949 13.8243 11.36 14.1594 10.5511C14.4944 9.7423 14.6668 8.8754 14.6668 7.99992C14.6668 6.23181 13.9644 4.53612 12.7142 3.28587C11.464 2.03563 9.76827 1.33325 8.00016 1.33325C6.23205 1.33325 4.53636 2.03563 3.28612 3.28587C2.03587 4.53612 1.3335 6.23181 1.3335 7.99992Z" stroke="#3617CE" stroke-width="1.5" stroke-linecap="round" stroke-linejoin="round"/>
<path d="M8 4.29614V7.99985L10.2222 10.2221" stroke="#3617CE" stroke-width="1.5" stroke-linecap="round" stroke-linejoin="round"/>
</g>
<defs>
<clipPath id="clip0_383_2554">
<rect width="16" height="16" fill="white"/>
</clipPath>
</defs>
</svg>
