<svg width="16" height="16" viewBox="0 0 16 16" fill="none" xmlns="http://www.w3.org/2000/svg">
<g clip-path="url(#clip0_689_1988)">
<path d="M1.6001 4.00005H14.4001M2.4001 4.00005L3.2001 13.6C3.2001 14.0244 3.36867 14.4314 3.66873 14.7314C3.96878 15.0315 4.37575 15.2 4.8001 15.2H11.2001C11.6244 15.2 12.0314 15.0315 12.3315 14.7314C12.6315 14.4314 12.8001 14.0244 12.8001 13.6L13.6001 4.00005M5.6001 4.00005V1.60005C5.6001 1.38788 5.68438 1.18439 5.83441 1.03436C5.98444 0.884334 6.18792 0.800049 6.4001 0.800049H9.6001C9.81227 0.800049 10.0158 0.884334 10.1658 1.03436C10.3158 1.18439 10.4001 1.38788 10.4001 1.60005V4.00005M6.4001 8.00005L9.6001 11.2M9.6001 8.00005L6.4001 11.2" stroke="#696F8C" stroke-width="1.5" stroke-linecap="round" stroke-linejoin="round"/>
</g>
<defs>
<clipPath id="clip0_689_1988">
<rect width="16" height="16" fill="white"/>
</clipPath>
</defs>
</svg>
