<svg width="50" height="50" viewBox="0 0 50 50" fill="none" xmlns="http://www.w3.org/2000/svg">
<g id="tabler:device-desktop">
<path id="Vector" d="M10 8.85185C10 8.36071 10.1951 7.88968 10.5424 7.5424C10.8897 7.19511 11.3607 7 11.8519 7H41.4815C41.9726 7 42.4436 7.19511 42.7909 7.5424C43.1382 7.88968 43.3333 8.36071 43.3333 8.85185V27.3704C43.3333 27.8615 43.1382 28.3325 42.7909 28.6798C42.4436 29.0271 41.9726 29.2222 41.4815 29.2222H11.8519C11.3607 29.2222 10.8897 29.0271 10.5424 28.6798C10.1951 28.3325 10 27.8615 10 27.3704V8.85185Z" fill="#3617CE" fill-opacity="0.1"/>
<path id="Ellipse 455" d="M50 39.5C50 41.9853 47.9853 44 45.5 44C43.0147 44 41 41.9853 41 39.5C41 37.0147 43.0147 35 45.5 35C47.9853 35 50 37.0147 50 39.5Z" fill="#3617CE" fill-opacity="0.1"/>
<path id="Vector_2" opacity="0.4" d="M10.7408 44.8148H29.2593M14.4445 37.4074V44.8148M25.5556 37.4074V44.8148M3.33337 17.037C3.33337 16.5459 3.52848 16.0749 3.87577 15.7276C4.22306 15.3803 4.69408 15.1852 5.18523 15.1852H34.8149C35.306 15.1852 35.777 15.3803 36.1243 15.7276C36.4716 16.0749 36.6667 16.5459 36.6667 17.037V35.5556C36.6667 36.0467 36.4716 36.5177 36.1243 36.865C35.777 37.2123 35.306 37.4074 34.8149 37.4074H5.18523C4.69408 37.4074 4.22306 37.2123 3.87577 36.865C3.52848 36.5177 3.33337 36.0467 3.33337 35.5556V17.037Z" stroke="#3617CE" stroke-width="2.5" stroke-linecap="round" stroke-linejoin="round"/>
</g>
</svg>
