<svg width="50" height="50" viewBox="0 0 50 50" fill="none" xmlns="http://www.w3.org/2000/svg">
<path opacity="0.1" d="M50 37.5C50 39.9853 47.9853 42 45.5 42C43.0147 42 41 39.9853 41 37.5C41 35.0147 43.0147 33 45.5 33C47.9853 33 50 35.0147 50 37.5Z" fill="#3617CE"/>
<path opacity="0.1" d="M39.6765 31.8431C39.6765 33.3902 39.0816 34.8739 38.0225 35.9679C36.9635 37.0619 35.5271 37.6765 34.0295 37.6765L18.9706 37.6765C17.4729 37.6765 16.0366 37.0619 14.9776 35.9679C13.9185 34.8739 13.3236 33.3902 13.3236 31.8431L13.3236 22.1209L13.3236 12.3987L13.3236 8.50978C13.3236 6.96269 13.9185 5.47896 14.9776 4.385C16.0366 3.29103 17.4729 2.67645 18.9706 2.67645L34.0295 2.67645C35.5271 2.67645 36.9635 3.29103 38.0225 4.385C39.0816 5.47896 39.6765 6.96269 39.6765 8.50979L39.6765 31.8431Z" fill="#3617CE"/>
<g opacity="0.4">
<path d="M23.2227 15.2722V22.4922C23.2227 22.9709 23.4451 23.43 23.841 23.7685C24.2369 24.107 24.7739 24.2972 25.3338 24.2972H33.7782" stroke="#3617CE" stroke-width="2.5" stroke-linecap="round" stroke-linejoin="round"/>
<path d="M25.4544 47.8889H30.1591C31.1189 47.8889 32.0395 47.4934 32.7182 46.7896C33.3969 46.0858 33.7782 45.1312 33.7782 44.1358V23.4938L24.7305 14.1111H12.0639C11.104 14.1111 10.1835 14.5065 9.50482 15.2103C8.82612 15.9142 8.44482 16.8688 8.44482 17.8642V26.4963" stroke="#3617CE" stroke-width="2.5" stroke-linecap="round" stroke-linejoin="round"/>
<path d="M11.1892 41.5556C10.8218 40.9192 10.6235 40.192 10.6235 39.4444C10.6235 38.3246 11.0683 37.2507 11.8602 36.4589C12.652 35.667 13.7259 35.2222 14.8457 35.2222M11.1892 41.5556C11.3721 41.8724 11.597 42.1668 11.8602 42.43C12.652 43.2218 13.7259 43.6667 14.8457 43.6667M11.1892 41.5556L8.44482 43.1389M14.8457 43.6667C15.9655 43.6667 17.0395 43.2218 17.8313 42.43C18.6231 41.6382 19.0679 40.5642 19.0679 39.4444C19.0679 38.6968 18.8697 37.9697 18.5022 37.3333M14.8457 43.6667V46.8333M18.5022 37.3333C18.3193 37.0164 18.0945 36.7221 17.8313 36.4589C17.0395 35.667 15.9655 35.2222 14.8457 35.2222M18.5022 37.3333L21.2445 35.75M14.8457 35.2222V32.0555M21.179 43.2508L18.4663 41.6189M11.2252 37.27L8.51238 35.6381" stroke="#3617CE" stroke-width="2.5" stroke-linecap="round" stroke-linejoin="round"/>
</g>
</svg>
