<svg width="46" height="46" viewBox="0 0 46 46" fill="none" xmlns="http://www.w3.org/2000/svg">
<path opacity="0.2" d="M32.5609 4.1446L34.1387 5.0784C38.8054 7.843 41.1376 9.2253 42.4187 11.5C43.6998 13.777 43.6998 16.537 43.6998 22.0662V23.9338C43.6998 29.4607 43.6998 32.2253 42.4187 34.5C41.1376 36.777 38.8054 38.157 34.1387 40.9193L32.5609 41.8554C27.8942 44.6177 25.562 46 22.9998 46C20.4376 46 18.1054 44.62 13.4387 41.8554L11.8609 40.9193C7.19421 38.1593 4.862 36.7747 3.5809 34.5C2.2998 32.223 2.2998 29.463 2.2998 23.9338V22.0662C2.2998 16.537 2.2998 13.7747 3.5809 11.5C4.862 9.223 7.19421 7.843 11.8609 5.0784L13.4387 4.1446C18.1054 1.3823 20.4376 0 22.9998 0C25.562 0 27.8942 1.38 32.5609 4.1446Z" fill="#008AD4"/>
<path d="M23.0002 9.775C23.4577 9.775 23.8965 9.95674 24.22 10.2802C24.5435 10.6037 24.7252 11.0425 24.7252 11.5V25.3C24.7252 25.7575 24.5435 26.1963 24.22 26.5198C23.8965 26.8433 23.4577 27.025 23.0002 27.025C22.5427 27.025 22.1039 26.8433 21.7804 26.5198C21.4569 26.1963 21.2752 25.7575 21.2752 25.3V11.5C21.2752 11.0425 21.4569 10.6037 21.7804 10.2802C22.1039 9.95674 22.5427 9.775 23.0002 9.775ZM23.0002 34.5C23.6102 34.5 24.1952 34.2577 24.6265 33.8263C25.0579 33.395 25.3002 32.81 25.3002 32.2C25.3002 31.59 25.0579 31.005 24.6265 30.5737C24.1952 30.1423 23.6102 29.9 23.0002 29.9C22.3902 29.9 21.8052 30.1423 21.3739 30.5737C20.9425 31.005 20.7002 31.59 20.7002 32.2C20.7002 32.81 20.9425 33.395 21.3739 33.8263C21.8052 34.2577 22.3902 34.5 23.0002 34.5Z" fill="#008AD4"/>
</svg>
