<svg width="50" height="50" viewBox="0 0 50 50" fill="none" xmlns="http://www.w3.org/2000/svg">
<g id="tabler:file-description">
<g id="Group" opacity="0.4">
<path id="Vector" d="M23.7036 13.3333V20.7408C23.7036 21.2319 23.8987 21.7029 24.246 22.0502C24.5933 22.3975 25.0643 22.5926 25.5555 22.5926H32.9629" stroke="#3617CE" stroke-width="2.5" stroke-linecap="round" stroke-linejoin="round"/>
<path id="Vector_2" d="M14.4444 39.2593H25.5555M14.4444 31.8519H25.5555M29.2592 46.6667H10.7407C9.75841 46.6667 8.81636 46.2765 8.12178 45.5819C7.4272 44.8873 7.03699 43.9453 7.03699 42.963V17.037C7.03699 16.0548 7.4272 15.1127 8.12178 14.4181C8.81636 13.7236 9.75841 13.3333 10.7407 13.3333H23.7037L32.9629 22.5926V42.963C32.9629 43.9453 32.5727 44.8873 31.8781 45.5819C31.1835 46.2765 30.2415 46.6667 29.2592 46.6667Z" stroke="#3617CE" stroke-width="2.5" stroke-linecap="round" stroke-linejoin="round"/>
</g>
<path id="Ellipse 455" opacity="0.1" d="M50 37.5C50 39.9853 47.9853 42 45.5 42C43.0147 42 41 39.9853 41 37.5C41 35.0147 43.0147 33 45.5 33C47.9853 33 50 35.0147 50 37.5Z" fill="#3617CE"/>
<path id="Vector_3" opacity="0.1" d="M39.6765 31.8432C39.6765 33.3902 39.0815 34.874 38.0225 35.9679C36.9634 37.0619 35.5271 37.6765 34.0294 37.6765L18.9706 37.6765C17.4729 37.6765 16.0365 37.0619 14.9775 35.9679C13.9185 34.874 13.3235 33.3902 13.3235 31.8431L13.3235 22.1209L13.3235 12.3987L13.3235 8.50982C13.3235 6.96272 13.9185 5.47899 14.9775 4.38503C16.0365 3.29106 17.4729 2.67648 18.9706 2.67648L34.0294 2.67648C35.5271 2.67648 36.9634 3.29106 38.0225 4.38503C39.0815 5.47899 39.6765 6.96272 39.6765 8.50982L39.6765 31.8432Z" fill="#3617CE"/>
</g>
</svg>
