<svg width="50" height="50" viewBox="0 0 50 50" fill="none" xmlns="http://www.w3.org/2000/svg">
<g id="tabler:settings">
<g id="Group">
<path id="Vector" opacity="0.4" d="M16.8982 15.7722C17.6871 12.5204 22.313 12.5204 23.1019 15.7722C23.2203 16.2607 23.4523 16.7144 23.7791 17.0963C24.106 17.4782 24.5184 17.7775 24.9827 17.9699C25.4471 18.1623 25.9503 18.2423 26.4515 18.2035C26.9526 18.1646 27.4375 18.008 27.8667 17.7463C30.7241 16.0056 33.9963 19.2759 32.2556 22.1352C31.9943 22.5642 31.8379 23.0488 31.7991 23.5496C31.7604 24.0504 31.8403 24.5533 32.0325 25.0174C32.2247 25.4815 32.5236 25.8937 32.9051 26.2205C33.2865 26.5473 33.7397 26.7795 34.2278 26.8982C37.4797 27.687 37.4797 32.313 34.2278 33.1019C33.7393 33.2202 33.2856 33.4523 32.9037 33.7791C32.5219 34.1059 32.2225 34.5183 32.0301 34.9827C31.8377 35.4471 31.7577 35.9503 31.7966 36.4515C31.8354 36.9526 31.9921 37.4375 32.2537 37.8667C33.9945 40.7241 30.7241 43.9963 27.8649 42.2556C27.4359 41.9943 26.9513 41.8379 26.4505 41.7991C25.9497 41.7603 25.4468 41.8403 24.9827 42.0325C24.5186 42.2246 24.1064 42.5236 23.7796 42.9051C23.4528 43.2865 23.2206 43.7397 23.1019 44.2278C22.313 47.4796 17.6871 47.4796 16.8982 44.2278C16.7798 43.7393 16.5478 43.2856 16.2209 42.9037C15.8941 42.5218 15.4817 42.2225 15.0174 42.0301C14.553 41.8377 14.0497 41.7577 13.5486 41.7965C13.0474 41.8354 12.5625 41.992 12.1334 42.2537C9.27597 43.9945 6.00374 40.7241 7.74449 37.8648C8.00578 37.4358 8.16217 36.9512 8.20094 36.4504C8.2397 35.9496 8.15975 35.4467 7.96758 34.9826C7.77541 34.5185 7.47645 34.1063 7.09499 33.7795C6.71353 33.4527 6.26034 33.2206 5.77226 33.1019C2.52041 32.313 2.52041 27.687 5.77226 26.8982C6.26078 26.7798 6.71445 26.5477 7.09634 26.2209C7.47823 25.8941 7.77755 25.4817 7.96994 25.0173C8.16233 24.5529 8.24236 24.0497 8.2035 23.5486C8.16465 23.0474 8.00801 22.5625 7.74634 22.1333C6.0056 19.2759 9.27597 16.0037 12.1352 17.7445C13.9871 18.8704 16.3871 17.8741 16.8982 15.7722Z" stroke="#3617CE" stroke-width="2.5" stroke-linecap="round" stroke-linejoin="round"/>
<path id="Vector_2" opacity="0.1" d="M26.8982 5.77223C27.6871 2.52038 32.313 2.52038 33.1019 5.77223C33.2203 6.26075 33.4523 6.71442 33.7791 7.09631C34.106 7.4782 34.5184 7.77752 34.9827 7.96991C35.4471 8.1623 35.9503 8.24233 36.4515 8.20347C36.9526 8.16462 37.4375 8.00798 37.8667 7.74631C40.7241 6.00557 43.9963 9.27594 42.2556 12.1352C41.9943 12.5642 41.8379 13.0488 41.7991 13.5496C41.7604 14.0504 41.8403 14.5533 42.0325 15.0174C42.2247 15.4815 42.5236 15.8937 42.9051 16.2205C43.2865 16.5473 43.7397 16.7795 44.2278 16.8982C47.4797 17.687 47.4797 22.313 44.2278 23.1019C43.7393 23.2202 43.2856 23.4523 42.9037 23.7791C42.5219 24.1059 42.2225 24.5183 42.0301 24.9827C41.8377 25.4471 41.7577 25.9503 41.7966 26.4515C41.8354 26.9526 41.9921 27.4375 42.2537 27.8667C43.9945 30.7241 40.7241 33.9963 37.8649 32.2556C37.4359 31.9943 36.9513 31.8379 36.4505 31.7991C35.9497 31.7603 35.4468 31.8403 34.9827 32.0325C34.5186 32.2246 34.1064 32.5236 33.7796 32.9051C33.4528 33.2865 33.2206 33.7397 33.1019 34.2278C32.313 37.4796 27.6871 37.4796 26.8982 34.2278C26.7798 33.7393 26.5478 33.2856 26.2209 32.9037C25.8941 32.5218 25.4817 32.2225 25.0174 32.0301C24.553 31.8377 24.0497 31.7577 23.5486 31.7965C23.0474 31.8354 22.5625 31.992 22.1334 32.2537C19.276 33.9945 16.0037 30.7241 17.7445 27.8648C18.0058 27.4358 18.1622 26.9512 18.2009 26.4504C18.2397 25.9496 18.1598 25.4467 17.9676 24.9826C17.7754 24.5185 17.4764 24.1063 17.095 23.7795C16.7135 23.4527 16.2603 23.2206 15.7723 23.1019C12.5204 22.313 12.5204 17.687 15.7723 16.8982C16.2608 16.7798 16.7144 16.5477 17.0963 16.2209C17.4782 15.8941 17.7775 15.4817 17.9699 15.0173C18.1623 14.5529 18.2424 14.0497 18.2035 13.5486C18.1646 13.0474 18.008 12.5625 17.7463 12.1333C16.0056 9.27594 19.276 6.00371 22.1352 7.74445C23.9871 8.87038 26.3871 7.87408 26.8982 5.77223Z" fill="#3617CE"/>
<path id="Vector_3" opacity="0.4" d="M14.4445 30C14.4445 31.4734 15.0298 32.8865 16.0716 33.9284C17.1135 34.9703 18.5266 35.5556 20 35.5556C21.4734 35.5556 22.8865 34.9703 23.9284 33.9284C24.9703 32.8865 25.5556 31.4734 25.5556 30C25.5556 28.5266 24.9703 27.1135 23.9284 26.0716C22.8865 25.0298 21.4734 24.4445 20 24.4445C18.5266 24.4445 17.1135 25.0298 16.0716 26.0716C15.0298 27.1135 14.4445 28.5266 14.4445 30Z" stroke="#3617CE" stroke-width="2.5" stroke-linecap="round" stroke-linejoin="round"/>
</g>
<path id="Ellipse 455" d="M50 36.5C50 38.9853 47.9853 41 45.5 41C43.0147 41 41 38.9853 41 36.5C41 34.0147 43.0147 32 45.5 32C47.9853 32 50 34.0147 50 36.5Z" fill="#EBE8FB"/>
</g>
</svg>
