<svg width="50" height="50" viewBox="0 0 50 50" fill="none" xmlns="http://www.w3.org/2000/svg">
<g id="tabler:message-chatbot">
<path id="Ellipse 455" opacity="0.1" d="M50 36.5C50 38.9853 47.9853 41 45.5 41C43.0147 41 41 38.9853 41 36.5C41 34.0147 43.0147 32 45.5 32C47.9853 32 50 34.0147 50 36.5Z" fill="#3617CE"/>
<g id="Group">
<path id="Vector" opacity="0.1" d="M38.1667 6C39.7138 6 41.1975 6.59496 42.2915 7.65399C43.3854 8.71301 44 10.1494 44 11.6471V26.7059C44 28.2036 43.3854 29.6399 42.2915 30.699C41.1975 31.758 39.7138 32.3529 38.1667 32.3529H28.4444L21.7267 36.2549C20.3934 37.0293 18.7222 36.0673 18.7222 34.5254V32.3529H14.8333C13.2862 32.3529 11.8025 31.758 10.7085 30.699C9.61458 29.6399 9 28.2036 9 26.7059V11.6471C9 10.1494 9.61458 8.71301 10.7085 7.65399C11.8025 6.59496 13.2862 6 14.8333 6H38.1667Z" fill="#3617CE"/>
<path id="Vector_2" d="M15.3704 24.4444H15.3889M24.6297 24.4444H24.6482M31.1112 15.1852C32.5846 15.1852 33.9977 15.7705 35.0395 16.8124C36.0814 17.8542 36.6667 19.2673 36.6667 20.7407V35.5556C36.6667 37.029 36.0814 38.4421 35.0395 39.4839C33.9977 40.5258 32.5846 41.1111 31.1112 41.1111H21.8519L12.5926 46.6667V41.1111H8.88893C7.4155 41.1111 6.00243 40.5258 4.96056 39.4839C3.91869 38.4421 3.33337 37.029 3.33337 35.5556V20.7407C3.33337 19.2673 3.91869 17.8542 4.96056 16.8124C6.00243 15.7705 7.4155 15.1852 8.88893 15.1852H31.1112Z" stroke="#3617CE" stroke-opacity="0.4" stroke-width="2.5" stroke-linecap="round" stroke-linejoin="round"/>
<path id="Vector_3" d="M15.3704 31.8518C15.9738 32.4678 16.6942 32.9571 17.4891 33.2911C18.2841 33.6252 19.1377 33.7972 20 33.7972C20.8623 33.7972 21.7159 33.6252 22.5109 33.2911C23.3058 32.9571 24.0261 32.4678 24.6296 31.8518" stroke="#3617CE" stroke-opacity="0.4" stroke-width="2.5" stroke-linecap="round" stroke-linejoin="round"/>
</g>
</g>
</svg>
