<svg width="16" height="16" viewBox="0 0 16 16" fill="none" xmlns="http://www.w3.org/2000/svg">
<g clip-path="url(#clip0_345_3402)">
<path d="M14.75 14.75L10.8929 10.8929M1.25 6.875C1.25 7.61369 1.3955 8.34514 1.67818 9.02759C1.96086 9.71005 2.37519 10.3301 2.89752 10.8525C3.41985 11.3748 4.03995 11.7891 4.72241 12.0718C5.40486 12.3545 6.13631 12.5 6.875 12.5C7.61369 12.5 8.34514 12.3545 9.02759 12.0718C9.71005 11.7891 10.3301 11.3748 10.8525 10.8525C11.3748 10.3301 11.7891 9.71005 12.0718 9.02759C12.3545 8.34514 12.5 7.61369 12.5 6.875C12.5 6.13631 12.3545 5.40486 12.0718 4.72241C11.7891 4.03995 11.3748 3.41985 10.8525 2.89752C10.3301 2.37519 9.71005 1.96086 9.02759 1.67818C8.34514 1.39549 7.61369 1.25 6.875 1.25C6.13631 1.25 5.40486 1.39549 4.72241 1.67818C4.03995 1.96086 3.41985 2.37519 2.89752 2.89752C2.37519 3.41985 1.96086 4.03995 1.67818 4.72241C1.3955 5.40486 1.25 6.13631 1.25 6.875Z" stroke="#696F8C" stroke-width="1.5" stroke-linecap="round" stroke-linejoin="round"/>
</g>
<defs>
<clipPath id="clip0_345_3402">
<rect width="16" height="16" fill="white"/>
</clipPath>
</defs>
</svg>
