<svg width="46" height="46" viewBox="0 0 46 46" fill="none" xmlns="http://www.w3.org/2000/svg">
<g clip-path="url(#clip0_928_3484)">
<path opacity="0.2" d="M23.0006 2.3C17.6876 2.3 14.3296 8.2501 7.61815 20.1526L6.78095 21.6338C1.20345 31.5238 -1.58645 36.4688 0.934353 40.0844C3.45515 43.7 9.69275 43.7 22.1634 43.7H23.8378C36.3084 43.7 42.546 43.7 45.0668 40.0844C47.5876 36.4688 44.7977 31.5238 39.2202 21.6338L38.3829 20.1503C31.6716 8.2501 28.3159 2.3 23.0006 2.3Z" fill="#EE630A"/>
<path d="M23.0002 12.075C23.4577 12.075 23.8965 12.2567 24.22 12.5802C24.5435 12.9037 24.7252 13.3425 24.7252 13.8V25.3C24.7252 25.7575 24.5435 26.1963 24.22 26.5198C23.8965 26.8433 23.4577 27.025 23.0002 27.025C22.5427 27.025 22.1039 26.8433 21.7804 26.5198C21.4569 26.1963 21.2752 25.7575 21.2752 25.3V13.8C21.2752 13.3425 21.4569 12.9037 21.7804 12.5802C22.1039 12.2567 22.5427 12.075 23.0002 12.075ZM23.0002 34.5C23.6102 34.5 24.1952 34.2577 24.6265 33.8263C25.0579 33.395 25.3002 32.81 25.3002 32.2C25.3002 31.59 25.0579 31.005 24.6265 30.5737C24.1952 30.1423 23.6102 29.9 23.0002 29.9C22.3902 29.9 21.8052 30.1423 21.3739 30.5737C20.9425 31.005 20.7002 31.59 20.7002 32.2C20.7002 32.81 20.9425 33.395 21.3739 33.8263C21.8052 34.2577 22.3902 34.5 23.0002 34.5Z" fill="#EE630A"/>
</g>
<defs>
<clipPath id="clip0_928_3484">
<rect width="46" height="46" fill="white"/>
</clipPath>
</defs>
</svg>
