<svg width="12" height="12" viewBox="0 0 12 12" fill="none" xmlns="http://www.w3.org/2000/svg">
<g id="03 Interface/chevron-right">
<path id="Shape" fill-rule="evenodd" clip-rule="evenodd" d="M10.0325 5.4675L7.0325 2.4675C6.8975 2.3325 6.71 2.25 6.5 2.25C6.0875 2.25 5.75 2.5875 5.75 3C5.75 3.21 5.8325 3.3975 5.9675 3.5325L8.4425 6L5.975 8.4675C5.8325 8.6025 5.75 8.79 5.75 9C5.75 9.4125 6.0875 9.75 6.5 9.75C6.71 9.75 6.8975 9.6675 7.0325 9.5325L10.0325 6.5325C10.1675 6.3975 10.25 6.21 10.25 6C10.25 5.79 10.1675 5.6025 10.0325 5.4675Z" fill="#666666"/>
<path id="Shape_2" fill-rule="evenodd" clip-rule="evenodd" d="M6.2825 5.4675L3.2825 2.4675C3.1475 2.3325 2.96 2.25 2.75 2.25C2.3375 2.25 2 2.5875 2 3C2 3.21 2.0825 3.3975 2.2175 3.5325L4.6925 6L2.225 8.4675C2.0825 8.6025 2 8.79 2 9C2 9.4125 2.3375 9.75 2.75 9.75C2.96 9.75 3.1475 9.6675 3.2825 9.5325L6.2825 6.5325C6.4175 6.3975 6.5 6.21 6.5 6C6.5 5.79 6.4175 5.6025 6.2825 5.4675Z" fill="#666666"/>
</g>
</svg>
