<svg width="50" height="50" viewBox="0 0 50 50" fill="none" xmlns="http://www.w3.org/2000/svg">
<g id="tabler:shield-search">
<g id="Group">
<path id="Union" fill-rule="evenodd" clip-rule="evenodd" d="M28 38C24.882 37.1924 21.9583 35.7671 19.4028 33.809C16.8473 31.8508 14.712 29.3996 13.1239 26.6011C11.5358 23.8025 10.5273 20.7138 10.1583 17.5184C9.78921 14.3229 10.0672 11.086 10.9757 8C17.2156 8.28513 23.3216 6.13317 28 2.00005C32.6783 6.13317 38.7844 8.28513 45.0243 8C45.9328 11.086 46.2108 14.3229 45.8417 17.5184C45.4727 20.7138 44.4642 23.8025 42.8761 26.6011C41.288 29.3996 39.1527 31.8508 36.5972 33.809C34.0417 35.7671 31.118 37.1924 28 38Z" fill="#3617CE" fill-opacity="0.1"/>
<path id="Vector" d="M18 46.6667C15.1171 45.9189 12.4139 44.5992 10.051 42.7861C7.68819 40.9729 5.71393 38.7033 4.24558 36.1121C2.77722 33.5209 1.84472 30.6609 1.5035 27.7022C1.16228 24.7435 1.4193 21.7463 2.25929 18.8889C8.02878 19.1529 13.6744 17.1603 18 13.3333C22.3256 17.1603 27.9713 19.1529 33.7408 18.8889C34.7389 22.2815 34.9019 25.8278 34.2648 29.237" stroke="#3617CE" stroke-opacity="0.4" stroke-width="2.5" stroke-linecap="round" stroke-linejoin="round"/>
<path id="Vector_2" d="M30.9629 42.963L34.2962 46.2963M21.3333 38.8889C21.3333 40.3623 21.9186 41.7754 22.9604 42.8173C24.0023 43.8591 25.4154 44.4445 26.8888 44.4445C28.3622 44.4445 29.7753 43.8591 30.8172 42.8173C31.859 41.7754 32.4444 40.3623 32.4444 38.8889C32.4444 37.4155 31.859 36.0024 30.8172 34.9605C29.7753 33.9187 28.3622 33.3333 26.8888 33.3333C25.4154 33.3333 24.0023 33.9187 22.9604 34.9605C21.9186 36.0024 21.3333 37.4155 21.3333 38.8889Z" stroke="#3617CE" stroke-opacity="0.4" stroke-width="2.5" stroke-linecap="round" stroke-linejoin="round"/>
<path id="Ellipse 455" opacity="0.1" d="M50 39.5C50 41.9853 47.9853 44 45.5 44C43.0147 44 41 41.9853 41 39.5C41 37.0147 43.0147 35 45.5 35C47.9853 35 50 37.0147 50 39.5Z" fill="#3617CE"/>
</g>
</g>
</svg>
