<svg width="12" height="12" viewBox="0 0 12 12" fill="none" xmlns="http://www.w3.org/2000/svg">
<path fill-rule="evenodd" clip-rule="evenodd" d="M1.9675 5.4675L4.9675 2.4675C5.1025 2.3325 5.29 2.25 5.5 2.25C5.9125 2.25 6.25 2.5875 6.25 3C6.25 3.21 6.1675 3.3975 6.0325 3.5325L3.5575 6L6.025 8.4675C6.1675 8.6025 6.25 8.79 6.25 9C6.25 9.4125 5.9125 9.75 5.5 9.75C5.29 9.75 5.1025 9.6675 4.9675 9.5325L1.9675 6.5325C1.8325 6.3975 1.75 6.21 1.75 6C1.75 5.79 1.8325 5.6025 1.9675 5.4675Z" fill="#666666"/>
<path fill-rule="evenodd" clip-rule="evenodd" d="M5.7175 5.4675L8.7175 2.4675C8.8525 2.3325 9.04 2.25 9.25 2.25C9.6625 2.25 10 2.5875 10 3C10 3.21 9.9175 3.3975 9.7825 3.5325L7.3075 6L9.775 8.4675C9.9175 8.6025 10 8.79 10 9C10 9.4125 9.6625 9.75 9.25 9.75C9.04 9.75 8.8525 9.6675 8.7175 9.5325L5.7175 6.5325C5.5825 6.3975 5.5 6.21 5.5 6C5.5 5.79 5.5825 5.6025 5.7175 5.4675Z" fill="#666666"/>
</svg>
