<svg width="14" height="15" viewBox="0 0 14 15" fill="none" xmlns="http://www.w3.org/2000/svg">
<g clip-path="url(#clip0_527_726)">
<path d="M4.81244 9.68744L9.18744 5.31244M6.27077 3.12494L6.60838 2.7341C7.29219 2.05039 8.21961 1.66631 9.1866 1.66638C10.1536 1.66645 11.081 2.05065 11.7647 2.73447C12.4484 3.41829 12.8325 4.3457 12.8324 5.3127C12.8323 6.27969 12.4481 7.20705 11.7643 7.89077L11.3749 8.22911M7.72911 11.8749L7.43963 12.2643C6.74783 12.9484 5.81416 13.3321 4.84124 13.3321C3.86832 13.3321 2.93466 12.9484 2.24286 12.2643C1.90187 11.9271 1.63116 11.5257 1.4464 11.0832C1.26164 10.6407 1.1665 10.1659 1.1665 9.68634C1.1665 9.20681 1.26164 8.73204 1.4464 8.28952C1.63116 7.84701 1.90187 7.44554 2.24286 7.10838L2.62494 6.77077" stroke="#696F8C" stroke-width="1.5" stroke-linecap="round" stroke-linejoin="round"/>
</g>
<defs>
<clipPath id="clip0_527_726">
<rect width="14" height="14" fill="white" transform="translate(0 0.5)"/>
</clipPath>
</defs>
</svg>
