<svg width="12" height="12" viewBox="0 0 12 12" fill="none" xmlns="http://www.w3.org/2000/svg">
<g clip-path="url(#clip0_390_2382)">
<path d="M11.0625 11.0625L8.30114 8.30114M0.9375 5.23295C0.9375 5.79704 1.04861 6.35561 1.26447 6.87675C1.48034 7.3979 1.79674 7.87143 2.19561 8.2703C2.59448 8.66917 3.06801 8.98557 3.58916 9.20144C4.1103 9.4173 4.66887 9.52841 5.23295 9.52841C5.79704 9.52841 6.35561 9.4173 6.87675 9.20144C7.3979 8.98557 7.87143 8.66917 8.2703 8.2703C8.66917 7.87143 8.98557 7.3979 9.20144 6.87675C9.4173 6.35561 9.52841 5.79704 9.52841 5.23295C9.52841 4.66887 9.4173 4.1103 9.20144 3.58916C8.98557 3.06801 8.66917 2.59448 8.2703 2.19561C7.87143 1.79674 7.3979 1.48034 6.87675 1.26447C6.35561 1.04861 5.79704 0.9375 5.23295 0.9375C4.66887 0.9375 4.1103 1.04861 3.58916 1.26447C3.06801 1.48034 2.59448 1.79674 2.19561 2.19561C1.79674 2.59448 1.48034 3.06801 1.26447 3.58916C1.04861 4.1103 0.9375 4.66887 0.9375 5.23295Z" stroke="white" stroke-width="1.5" stroke-linecap="round" stroke-linejoin="round"/>
</g>
<defs>
<clipPath id="clip0_390_2382">
<rect width="12" height="12" fill="white"/>
</clipPath>
</defs>
</svg>
