<svg width="18" height="18" viewBox="0 0 18 18" fill="none" xmlns="http://www.w3.org/2000/svg">
<path d="M9 12.3333H2.33333C2.11232 12.3333 1.90036 12.2455 1.74408 12.0893C1.5878 11.933 1.5 11.721 1.5 11.5V3.16666C1.5 2.94565 1.5878 2.73369 1.74408 2.57741C1.90036 2.42113 2.11232 2.33333 2.33333 2.33333H15.6667C15.8877 2.33333 16.0996 2.42113 16.2559 2.57741C16.4122 2.73369 16.5 2.94565 16.5 3.16666V9M4.83333 15.6667H9M6.5 12.3333V15.6667" stroke="#666666" stroke-width="1.8" stroke-linecap="round" stroke-linejoin="round"/>
<path d="M13.8342 14.5C13.3922 14.5 12.9682 14.3244 12.6557 14.0118C12.3431 13.6993 12.1675 13.2754 12.1675 12.8333C12.1675 12.3913 12.3431 11.9674 12.6557 11.6548C12.9682 11.3423 13.3922 11.1667 13.8342 11.1667M13.8342 14.5C14.2762 14.5 14.7001 14.3244 15.0127 14.0118C15.3253 13.6993 15.5008 13.2754 15.5008 12.8333C15.5008 12.3913 15.3253 11.9674 15.0127 11.6548C14.7001 11.3423 14.2762 11.1667 13.8342 11.1667M13.8342 14.5V15.75M13.8342 11.1667V9.91666M16.36 11.375L15.2775 12M12.3917 13.6667L11.3083 14.2917M11.3083 11.375L12.3917 12M15.2775 13.6667L16.3609 14.2917" stroke="#666666" stroke-width="1.8" stroke-linecap="round" stroke-linejoin="round"/>
</svg>
