<svg width="371" height="170" viewBox="0 0 371 170" fill="none" xmlns="http://www.w3.org/2000/svg">
<g clip-path="url(#clip0_318_1133)">
<g opacity="0.04" clip-path="url(#clip1_318_1133)">
<path fill-rule="evenodd" clip-rule="evenodd" d="M21.0834 58.6788C-26.5008 11.0946 -26.5573 -65.9982 20.9572 -113.513C68.4718 -161.027 145.565 -160.971 193.149 -113.387C240.733 -65.8023 240.789 11.2905 193.275 58.805C145.76 106.32 68.6677 106.263 21.0834 58.6788ZM53.6299 26.1068C24.0367 -3.48645 23.9874 -51.4174 53.52 -80.95C83.0525 -110.483 130.983 -110.433 160.577 -80.84C190.17 -51.2467 190.219 -3.3158 160.687 26.2168C131.154 55.7493 83.2232 55.7001 53.6299 26.1068Z" fill="#3921B0"/>
</g>
<circle opacity="0.06" cx="19" cy="134" r="31" fill="#3921B0"/>
<path opacity="0.08" fill-rule="evenodd" clip-rule="evenodd" d="M352.305 86.7157C336.684 71.0948 311.358 71.0948 295.737 86.7157L230.716 151.737C215.095 167.358 215.095 192.684 230.716 208.305L295.737 273.326C311.358 288.947 336.684 288.947 352.305 273.326L417.326 208.305C432.947 192.684 432.947 167.358 417.326 151.737L352.305 86.7157ZM345.234 122.045C333.519 110.329 314.524 110.329 302.808 122.045L266.045 158.808C254.329 170.524 254.329 189.519 266.045 201.234L302.808 237.997C314.524 249.713 333.519 249.713 345.234 237.997L381.997 201.234C393.713 189.519 393.713 170.524 381.997 158.808L345.234 122.045Z" fill="#FF404E"/>
</g>
<defs>
<clipPath id="clip0_318_1133">
<path d="M0 0H371V170H48C21.4903 170 0 148.51 0 122V0Z" fill="white"/>
</clipPath>
<clipPath id="clip1_318_1133">
<rect width="124.129" height="243.484" fill="white" transform="matrix(-0.707107 -0.707107 -0.707107 0.707107 279.308 -27.2277)"/>
</clipPath>
</defs>
</svg>
