<svg width="86" height="30" viewBox="0 0 86 30" fill="none" xmlns="http://www.w3.org/2000/svg">
<g id="logo_A" clip-path="url(#clip0_86_7353)">
<g id="Group">
<path id="Vector" d="M28.0808 9.64014C28.1513 9.82028 28.2187 10.0004 28.2813 10.1806C28.2187 9.99886 28.1497 9.81872 28.0808 9.64014Z" fill="#1D1160"/>
<path id="Vector_2" d="M28.0354 9.52734C28.051 9.56486 28.0651 9.60237 28.0807 9.63988C28.0651 9.60237 28.0495 9.56486 28.0354 9.52734Z" fill="#1D1160"/>
<path id="Vector_3" d="M28.2814 10.1821V10.1844C28.2836 10.1844 28.2814 10.1844 28.2814 10.1821Z" fill="#1D1160"/>
<path id="Vector_4" d="M26.8887 17.8125L19.8239 14.3803C18.4517 13.7146 16.799 14.2863 16.1333 15.6586C15.4675 17.0308 16.0393 18.6835 17.4115 19.3492L24.4764 22.7814C25.8486 23.4471 27.5012 22.8754 28.167 21.5031C28.8328 20.1325 28.261 18.4798 26.8887 17.8125Z" fill="#FF404E"/>
<path id="Vector_5" d="M19.8928 22.2973C19.0375 21.8822 18.0522 21.854 17.1577 22.1783C17.1452 22.183 17.1326 22.1861 17.1217 22.1908C17.0371 22.2206 16.9525 22.2503 16.8663 22.277C16.8381 22.2864 16.8099 22.2958 16.7817 22.3036C16.6987 22.3287 16.6157 22.3522 16.5327 22.3741C16.5029 22.3819 16.4732 22.3913 16.4418 22.3992C16.3525 22.4227 16.2617 22.443 16.1708 22.4618C16.1473 22.4665 16.1238 22.4728 16.1003 22.4775C15.986 22.501 15.8732 22.5213 15.7588 22.5401C15.7353 22.5433 15.7134 22.5464 15.6899 22.5495C15.5991 22.5636 15.5082 22.5762 15.4173 22.5856C15.3766 22.5903 15.3359 22.5934 15.2952 22.5981C15.22 22.6059 15.1448 22.6122 15.0696 22.6169C15.0257 22.62 14.9803 22.6216 14.9349 22.6247C14.8612 22.6279 14.7892 22.631 14.7156 22.6326C14.6701 22.6341 14.6231 22.6341 14.5777 22.6341C14.5041 22.6341 14.432 22.6326 14.3584 22.631C14.3114 22.6294 14.2644 22.6294 14.2174 22.6279C14.1532 22.6247 14.0905 22.62 14.0263 22.6169C13.0723 22.5542 12.0839 22.3193 11.0891 21.8775C9.56496 21.2008 8.32743 19.9868 7.64131 18.4657C7.18547 17.4538 6.94266 16.4481 6.87844 15.4784C6.87687 15.4534 6.8753 15.4267 6.87374 15.4017C6.8659 15.2701 6.86277 15.1385 6.8612 15.0085C6.8612 14.9819 6.8612 14.9552 6.8612 14.9286C6.8612 14.7923 6.8659 14.656 6.87217 14.5213C6.87217 14.5088 6.87374 14.4947 6.8753 14.4821C6.93326 13.5313 7.16354 12.6274 7.53636 11.8003C7.53793 11.7972 7.53949 11.7925 7.54106 11.7894C7.60058 11.6593 7.66324 11.5309 7.72904 11.404C7.73844 11.3868 7.74627 11.3695 7.75567 11.3523C7.81676 11.2364 7.88255 11.1236 7.94991 11.0108C7.97028 10.9779 7.99064 10.9435 8.011 10.9106C8.0721 10.8119 8.13476 10.7163 8.20055 10.6208C8.23031 10.5785 8.26007 10.5346 8.28984 10.4923C8.35406 10.403 8.41829 10.3153 8.48565 10.2291C8.51698 10.1884 8.54988 10.1477 8.58277 10.1085C8.65953 10.0145 8.73942 9.92054 8.82088 9.82968C8.84437 9.80305 8.86787 9.77799 8.89137 9.75293C8.98222 9.65424 9.07621 9.55555 9.17334 9.46156C9.189 9.4459 9.20467 9.4318 9.22033 9.41613C9.32528 9.31431 9.43337 9.21562 9.54459 9.12163C9.55556 9.11223 9.56652 9.10283 9.57749 9.09344C9.69497 8.99318 9.81559 8.89762 9.93935 8.8052C9.95031 8.79737 9.96128 8.78954 9.97068 8.78171C10.0897 8.69398 10.2119 8.60783 10.3357 8.52637C10.3607 8.5107 10.3842 8.49504 10.4093 8.47781C10.5064 8.41515 10.6051 8.35562 10.7054 8.29923C11.3507 7.92171 12.0713 7.61154 12.8718 7.3938C14.4822 6.95675 16.2053 7.1416 17.6966 7.88881C18.6694 8.37599 19.4792 8.99005 20.1325 9.68713C20.1763 9.73413 20.2218 9.78112 20.264 9.82812C20.2954 9.86258 20.3251 9.89861 20.3565 9.93464C20.405 9.98946 20.452 10.0459 20.4975 10.1023C20.5257 10.1383 20.5554 10.1743 20.5836 10.2103C20.629 10.2683 20.6729 10.3263 20.7168 10.3858C20.7434 10.4218 20.77 10.4578 20.7951 10.4939C20.8389 10.555 20.8828 10.6176 20.9251 10.6819C20.947 10.7163 20.9705 10.7492 20.9925 10.7837C21.0426 10.8604 21.0912 10.9403 21.1381 11.0186C21.1491 11.0374 21.1616 11.0578 21.1742 11.0766C21.2321 11.1769 21.2885 11.2787 21.3434 11.3805C21.3543 11.4009 21.3637 11.4228 21.3747 11.4432C21.417 11.5262 21.4593 11.6092 21.4984 11.6938C21.511 11.722 21.5235 11.7502 21.5376 11.7784C21.5736 11.8567 21.6081 11.9366 21.641 12.0165C21.652 12.0447 21.6629 12.0713 21.6739 12.0995C21.7068 12.1825 21.7397 12.2671 21.7694 12.3517C21.7741 12.3643 21.7788 12.3752 21.7835 12.3878C22.1015 13.2853 22.7485 14.0279 23.6132 14.4242C26.3561 15.6836 29.2713 13.0394 28.2829 10.1868C28.2829 10.1853 28.2829 10.1853 28.2813 10.1837C28.2187 10.002 28.1513 9.82185 28.0808 9.64327C28.0667 9.60568 28.051 9.56808 28.0354 9.53049C27.9727 9.37384 27.9069 9.21875 27.8396 9.06524C27.8286 9.04174 27.8192 9.01824 27.8082 8.99475C27.7299 8.82243 27.6485 8.65169 27.5639 8.48094C27.5466 8.44491 27.5278 8.40888 27.509 8.37285C27.4323 8.22247 27.3524 8.07209 27.2709 7.92327C27.2584 7.89978 27.2459 7.87628 27.2333 7.85278C27.1378 7.6836 27.0391 7.51599 26.9373 7.34994C26.92 7.32174 26.9028 7.29511 26.8856 7.26691C26.7853 7.10713 26.6835 6.94892 26.577 6.7907C26.5707 6.7813 26.566 6.77347 26.5597 6.76407C26.4454 6.59646 26.3263 6.43041 26.2026 6.26593C26.1869 6.244 26.1697 6.22364 26.154 6.20171C26.0303 6.03879 25.905 5.87744 25.7734 5.71766C25.6763 5.60018 25.5791 5.48426 25.4789 5.3699C25.4522 5.33857 25.424 5.30881 25.3958 5.27748C25.3301 5.20229 25.2627 5.12866 25.1953 5.05504C24.1427 3.92247 22.9114 2.95752 21.547 2.20717C21.5282 2.19621 21.5094 2.18681 21.4906 2.17584C21.395 2.12415 21.2979 2.07245 21.1992 2.02233C21.1585 2.00196 21.1178 1.98003 21.0771 1.95967C21.0019 1.92207 20.9251 1.88447 20.8483 1.84688C20.7841 1.81555 20.7199 1.78579 20.6541 1.75602C20.6008 1.73096 20.546 1.70746 20.4928 1.6824C20.405 1.64324 20.3157 1.60407 20.2264 1.56648C20.1951 1.55238 20.1638 1.53985 20.1309 1.52732C20.0197 1.48189 19.9085 1.43646 19.7957 1.3926C19.7847 1.3879 19.7753 1.38477 19.7643 1.38007C18.4375 0.87096 17.0481 0.560796 15.6413 0.452708C15.6335 0.452708 15.6257 0.451142 15.6179 0.451142C15.4863 0.441743 15.3547 0.432344 15.2231 0.426078C14.927 0.41198 14.6278 0.40728 14.3286 0.41198C14.3271 0.41198 14.3255 0.41198 14.3239 0.41198C14.1783 0.413546 14.031 0.418246 13.8838 0.424511C13.8524 0.426078 13.8227 0.427644 13.7913 0.429211C13.6785 0.435477 13.5658 0.441743 13.453 0.449575C13.3793 0.454275 13.3073 0.462107 13.2337 0.468373C13.171 0.473072 13.1083 0.479338 13.0457 0.485604C8.67519 0.933619 4.43002 3.3648 1.74037 7.92171C1.58842 8.17861 1.44743 8.43865 1.31428 8.70338C1.19523 8.97438 1.08401 9.24852 0.982188 9.52892C-0.828669 14.5025 -0.0109636 19.3257 2.41865 22.985C2.45312 23.0367 2.48915 23.09 2.52518 23.1417C2.5659 23.2028 2.6082 23.2623 2.64893 23.3218C2.71472 23.4142 2.78051 23.5051 2.84787 23.596C2.86667 23.621 2.8839 23.6461 2.9027 23.6711C2.99199 23.7902 3.08284 23.9077 3.17527 24.022C3.36324 24.257 3.55592 24.4841 3.75487 24.705C3.84102 24.8006 3.93031 24.8946 4.0196 24.9886C4.02743 24.9964 4.0337 25.0042 4.04153 25.0121C5.01745 26.0303 6.14062 26.9075 7.37658 27.6077C7.38598 27.614 7.39538 27.6187 7.40634 27.6234C7.5113 27.6829 7.61625 27.7393 7.72277 27.7957C7.75253 27.8114 7.78386 27.8286 7.81363 27.8443C7.89978 27.8897 7.98437 27.932 8.0721 27.9758C8.12536 28.0025 8.17862 28.0291 8.23188 28.0542C8.2961 28.0855 8.36033 28.1153 8.42456 28.145C8.50131 28.181 8.57964 28.2155 8.65796 28.25C8.70026 28.2688 8.74099 28.286 8.78328 28.3048C8.88354 28.3487 8.98536 28.391 9.08718 28.4317C9.10754 28.4395 9.12634 28.4474 9.14671 28.4552C10.5941 29.0317 12.1215 29.37 13.6644 29.464C13.7647 29.4703 13.865 29.4734 13.9668 29.4781C14.0075 29.4797 14.0482 29.4828 14.0874 29.4844C14.2378 29.4891 14.3897 29.4906 14.5432 29.4906C14.75 29.4906 14.9537 29.4859 15.1589 29.4765C15.1855 29.475 15.2121 29.475 15.2403 29.4734C15.4455 29.464 15.6492 29.4499 15.8513 29.4327C15.8622 29.4311 15.8716 29.4311 15.8826 29.4295C16.0721 29.4123 16.2601 29.3904 16.4465 29.3669C16.4779 29.3622 16.5107 29.359 16.5421 29.3543C16.7363 29.3277 16.9274 29.298 17.1185 29.2635C17.1436 29.2588 17.1702 29.2541 17.1953 29.2494C17.3629 29.2181 17.529 29.1852 17.695 29.1476C17.7342 29.1382 17.7733 29.1303 17.8125 29.1209C17.9973 29.0786 18.1822 29.0332 18.3639 28.9831C18.389 28.9768 18.414 28.969 18.4375 28.9612C18.6004 28.9157 18.7618 28.8687 18.9216 28.817C18.9607 28.8045 18.9983 28.7935 19.0375 28.781C19.2208 28.7215 19.4025 28.6588 19.5826 28.593C19.5842 28.593 19.5842 28.5915 19.5858 28.5915C22.4148 27.5466 22.6075 23.6163 19.8928 22.2973Z" fill="white"/>
</g>
<path id="Vector_6" d="M84.9567 20.2787C84.9521 20.2528 84.949 20.2252 84.9475 20.1993C84.8925 19.328 84.7182 18.5378 84.4171 17.8347C84.0273 16.9252 83.4802 16.1289 82.777 15.4472C82.372 15.0544 81.9165 14.7044 81.4213 14.3864C81.056 14.1526 80.6723 13.934 80.2581 13.7414C79.2829 13.2859 78.2329 12.9191 77.1064 12.6363L73.5649 11.597C73.1094 11.4884 72.6723 11.3814 72.2489 11.2729C71.827 11.1644 71.4418 11.0192 71.0949 10.8342C70.968 10.767 70.8534 10.6921 70.7479 10.6141C70.5645 10.4796 70.407 10.3329 70.2832 10.1678C70.1533 9.99511 70.0249 9.59159 70.0249 9.37913C70.0249 9.36538 70.0249 9.35468 70.0249 9.35468C70.0249 9.35315 70.0249 9.35162 70.0249 9.34856C70.0265 9.28437 70.0295 9.2217 70.0341 9.15903C70.0922 8.31684 70.5247 7.73602 71.1621 7.28206C71.5503 7.0054 72.0135 6.83268 72.5148 6.80211C72.5316 6.80058 72.5484 6.80058 72.5653 6.79906C72.6019 6.79753 72.6371 6.79294 72.6723 6.79294C72.6799 6.79294 72.6952 6.79294 72.7166 6.79294C72.7349 6.79294 72.9871 6.79294 73.3112 6.79294C73.4227 6.79294 73.545 6.79294 73.6673 6.79294C74.1274 6.79294 74.6119 6.79294 74.7663 6.79294C74.7877 6.79294 74.803 6.79294 74.8106 6.79294C74.8473 6.79294 74.8824 6.79753 74.9176 6.79906C74.9344 6.80058 74.9512 6.80058 74.968 6.80211C76.2932 6.88312 77.354 7.95917 77.4488 9.31341V9.31494C77.4747 9.67872 77.7055 9.99817 78.0464 10.125L82.8581 11.9134C83.4557 12.135 84.0946 11.6978 84.0992 11.0589C84.1084 9.93703 84.1206 8.50331 84.1206 8.49414C84.1221 4.25719 80.7702 0.822693 76.6356 0.822693C76.2932 0.822693 70.8656 0.822693 70.7158 0.822693C67.7964 0.822693 65.2729 2.53918 64.0379 5.03825C64.0348 5.04283 64.0317 5.04742 64.0287 5.05047C63.4326 6.03634 63.1238 7.17812 63.1024 8.47886C63.0596 10.6233 63.6007 12.3612 64.7272 13.6925C65.143 14.1847 65.6214 14.6203 66.1609 15.0055C67.0841 15.6627 68.1862 16.1625 69.4716 16.5034L73.3708 17.6085C74.0632 17.7827 74.7036 17.9554 75.2875 18.1282C75.8729 18.3024 76.3758 18.4965 76.7976 18.7136C77.2195 18.9306 77.5451 19.1843 77.7728 19.4778C77.9318 19.6826 78.0281 20.0709 78.0663 20.3338C78.0693 20.3521 78.0724 20.3689 78.0739 20.3873C78.0617 21.069 77.811 21.5413 77.3968 22.0441C76.8022 22.7686 75.8714 23.2363 74.8213 23.2363C74.7128 23.2363 72.3543 23.2363 72.2489 23.2363C70.4514 23.2363 68.9657 21.8668 68.9657 20.1779L68.9626 19.3295L68.9519 19.2638L63.4448 17.1897C62.8411 16.9619 62.1976 17.4098 62.1991 18.0548L62.2113 21.5275C62.2113 25.7645 65.9378 29.199 70.4483 29.199C70.7158 29.199 76.631 29.199 76.9046 29.199C81.4136 29.199 85.0698 25.7645 85.0698 21.5275C85.0682 21.1011 85.027 20.6853 84.9567 20.2787Z" fill="white"/>
<g id="Group_2">
<path id="Vector_7" d="M61.2341 28.0698L54.8003 28.1405C54.4752 28.1435 54.1757 27.969 54.0207 27.683L40.7618 3.37903C40.4427 2.79359 40.8671 2.08022 41.5338 2.08173L48.0158 2.09979C48.3364 2.10129 48.6298 2.27587 48.7833 2.5573L61.9941 26.771C62.3116 27.3534 61.8963 28.0623 61.2341 28.0698Z" fill="#FF404E"/>
<path id="Vector_8" d="M48.7502 26.9531L45.8682 22.706C45.6966 22.4517 45.37 22.2952 45.0148 22.2952H38.4441L48.7652 3.37903C49.0843 2.79359 48.6599 2.08022 47.9932 2.08173L41.5112 2.09979C41.1907 2.10129 40.8972 2.27587 40.7437 2.5573L29.0861 23.9236C28.0642 25.7958 29.4051 28.0818 31.5362 28.1044L34.4769 28.1375V28.1405H47.8969C48.6418 28.1405 49.1114 27.4859 48.7502 26.9531Z" fill="white"/>
</g>
</g>
<defs>
<clipPath id="clip0_86_7353">
<rect width="86" height="29.6066" fill="white"/>
</clipPath>
</defs>
</svg>
