<svg width="28" height="28" viewBox="0 0 28 28" fill="none" xmlns="http://www.w3.org/2000/svg">
<path d="M15.1666 2.91663V5.83329C15.1666 8.58313 15.1666 9.95863 16.0206 10.8126C16.8746 11.6666 18.2501 11.6666 21 11.6666H25.6666" stroke="#6568AA" stroke-width="2"/>
<path d="M9.91665 15.75V21.5833M9.91665 21.5833L12.25 19.3958M9.91665 21.5833L7.58331 19.3958" stroke="#6568AA" stroke-width="1.5" stroke-linecap="round" stroke-linejoin="round"/>
<path d="M4.20831 11.6666C4.20831 11.4346 4.11613 11.212 3.95203 11.0479C3.78794 10.8838 3.56538 10.7916 3.33331 10.7916C3.10125 10.7916 2.87869 10.8838 2.7146 11.0479C2.5505 11.212 2.45831 11.4346 2.45831 11.6666H4.20831ZM24.7916 16.3333C24.7916 16.5654 24.8838 16.7879 25.0479 16.952C25.212 17.1161 25.4346 17.2083 25.6666 17.2083C25.8987 17.2083 26.1213 17.1161 26.2854 16.952C26.4495 16.7879 26.5416 16.5654 26.5416 16.3333H24.7916ZM2.58081 6.91482C2.55823 7.1458 2.62832 7.37629 2.77568 7.55559C2.92303 7.73489 3.13558 7.84831 3.36656 7.8709C3.59755 7.89349 3.82804 7.82339 4.00734 7.67604C4.18664 7.52868 4.30006 7.31613 4.32265 7.08515L2.58081 6.91482ZM26.4191 21.0851C26.4303 20.9708 26.4189 20.8553 26.3854 20.7454C26.352 20.6354 26.2972 20.5332 26.2243 20.4444C26.1513 20.3556 26.0616 20.2821 25.9602 20.228C25.8588 20.1739 25.7478 20.1403 25.6334 20.1291C25.519 20.1179 25.4036 20.1293 25.2936 20.1628C25.1837 20.1962 25.0814 20.251 24.9926 20.3239C24.8133 20.4713 24.6999 20.6838 24.6773 20.9148L26.4191 21.0851ZM16.3333 24.7916H11.6666V26.5416H16.3333V24.7916ZM4.20831 16.3333V11.6666H2.45831V16.3333H4.20831ZM24.7916 15.8235V16.3333H26.5416V15.8235H24.7916ZM17.3728 5.37948L21.9916 9.53632L23.1618 8.23432L18.5441 4.07748L17.3728 5.37948ZM26.5416 15.8235C26.5416 13.853 26.5591 12.6046 26.0633 11.4893L24.4638 12.2021C24.7741 12.8998 24.7916 13.699 24.7916 15.8235H26.5416ZM21.9916 9.53632C23.5701 10.9573 24.1535 11.5056 24.4638 12.2021L26.0633 11.4893C25.5663 10.3728 24.6271 9.55265 23.1618 8.23432L21.9916 9.53632ZM11.7016 3.20832C13.5473 3.20832 14.2438 3.22232 14.8633 3.46032L15.491 1.82698C14.497 1.44432 13.4143 1.45832 11.7016 1.45832V3.20832ZM18.5441 4.07865C17.2771 2.93882 16.485 2.20732 15.491 1.82698L14.8645 3.46032C15.4851 3.69832 16.0078 4.15098 17.3728 5.37948L18.5441 4.07865ZM11.6666 24.7916C9.44181 24.7916 8.86215 24.7893 7.66165 24.6283C6.48915 24.4708 5.81248 24.1745 5.31898 23.681L4.08231 24.9176C4.95498 25.7926 6.06215 26.1788 7.42948 26.3631C8.77115 26.544 9.49198 26.5416 11.6666 26.5416V24.7916ZM2.45831 16.3333C2.45831 18.508 2.45598 20.2276 2.63681 21.5705C2.82115 22.9378 3.20848 24.045 4.08115 24.9188L5.31781 23.6821C4.82548 23.1875 4.52915 22.5108 4.37165 21.3371C4.21065 20.139 4.20831 18.5581 4.20831 16.3333H2.45831ZM16.3333 26.5416C18.508 26.5416 20.2276 26.544 21.5705 26.3631C22.9378 26.1788 24.045 25.7915 24.9188 24.9188L23.6821 23.6821C23.1875 24.1745 22.5108 24.4708 21.3371 24.6283C20.139 24.7893 18.5581 24.7916 16.3333 24.7916V26.5416ZM11.7016 1.45832C9.51415 1.45832 8.78631 1.45598 7.43881 1.63682C6.06565 1.82115 4.95498 2.20848 4.08115 3.08115L5.31781 4.31782C5.81248 3.82548 6.49031 3.52915 7.67098 3.37165C8.87615 3.21065 9.46515 3.20832 11.7016 3.20832V1.45832ZM4.32265 7.08515C4.46381 5.64548 4.76831 4.86848 5.31898 4.31898L4.08231 3.08232C3.10698 4.05532 2.73715 5.32115 2.58081 6.91482L4.32265 7.08515ZM24.6773 20.9148C24.5361 22.3545 24.2305 23.1315 23.681 23.681L24.9176 24.9176C25.893 23.9446 26.2628 22.6788 26.4191 21.0851L24.6773 20.9148Z" fill="#6568AA"/>
</svg>
