<svg width="16" height="16" viewBox="0 0 16 16" fill="none" xmlns="http://www.w3.org/2000/svg">
<path d="M10.6667 2V4.66667M5.33335 2V4.66667M2.66669 7.33333H13.3334M2.66669 4.66667C2.66669 4.31304 2.80716 3.97391 3.05721 3.72386C3.30726 3.47381 3.6464 3.33333 4.00002 3.33333H12C12.3536 3.33333 12.6928 3.47381 12.9428 3.72386C13.1929 3.97391 13.3334 4.31304 13.3334 4.66667V12.6667C13.3334 13.0203 13.1929 13.3594 12.9428 13.6095C12.6928 13.8595 12.3536 14 12 14H4.00002C3.6464 14 3.30726 13.8595 3.05721 13.6095C2.80716 13.3594 2.66669 13.0203 2.66669 12.6667V4.66667Z" stroke="#243162" stroke-width="1.5" stroke-linecap="round" stroke-linejoin="round"/>
</svg>
